REM DIRINDEX 1\5,1\2\6,1\2\7,1\3\8,1\3\9,1\3\10,1\3\11,1\4\12,1\4\13,1\4\14
REM DIRNAME cjc042,folder01,folder02,folder03,folder04,folder05,folder06,folder07,folder08,folder09,folder10,folder11,folder12,folder13
TITLE ""
FILE "4Q_j_673-680.mp3" MP3
  TRACK 01 AUDIO
    TITLE "8:cjc042_0947"
    INDEX 01 00:00:00
  TRACK 02 AUDIO
    TITLE "0:"
    INDEX 01 00:01:11
  TRACK 03 AUDIO
    TITLE "9:cjc042_0948"
    INDEX 01 00:01:68
  TRACK 04 AUDIO
    TITLE "0:"
    INDEX 01 00:04:25
  TRACK 05 AUDIO
    TITLE "10:cjc042_0949"
    INDEX 01 00:05:03
  TRACK 06 AUDIO
    TITLE "0:"
    INDEX 01 00:07:23
  TRACK 07 AUDIO
    TITLE "11:cjc042_0950"
    INDEX 01 00:08:03
  TRACK 08 AUDIO
    TITLE "0:"
    INDEX 01 00:10:37
  TRACK 09 AUDIO
    TITLE "8:cjc042_0951"
    INDEX 01 00:11:15
  TRACK 10 AUDIO
    TITLE "0:"
    INDEX 01 00:12:65
  TRACK 11 AUDIO
    TITLE "9:cjc042_0952"
    INDEX 01 00:13:39
  TRACK 12 AUDIO
    TITLE "0:"
    INDEX 01 00:14:47
  TRACK 13 AUDIO
    TITLE "10:cjc042_0953"
    INDEX 01 00:15:25
  TRACK 14 AUDIO
    TITLE "0:"
    INDEX 01 00:18:56
  TRACK 15 AUDIO
    TITLE "11:cjc042_0954"
    INDEX 01 00:19:24
  TRACK 16 AUDIO
    TITLE "0:"
    INDEX 01 00:22:11
  TRACK 17 AUDIO
    TITLE "8:cjc042_0955"
    INDEX 01 00:22:60
  TRACK 18 AUDIO
    TITLE "0:"
    INDEX 01 00:24:29
  TRACK 19 AUDIO
    TITLE "9:cjc042_0956"
    INDEX 01 00:25:07
  TRACK 20 AUDIO
    TITLE "0:"
    INDEX 01 00:28:02
  TRACK 21 AUDIO
    TITLE "10:cjc042_0957"
    INDEX 01 00:28:51
  TRACK 22 AUDIO
    TITLE "0:"
    INDEX 01 00:32:70
  TRACK 23 AUDIO
    TITLE "11:cjc042_0958"
    INDEX 01 00:33:48
  TRACK 24 AUDIO
    TITLE "0:"
    INDEX 01 00:38:02
  TRACK 25 AUDIO
    TITLE "8:cjc042_0959"
    INDEX 01 00:38:57
  TRACK 26 AUDIO
    TITLE "0:"
    INDEX 01 00:40:26
  TRACK 27 AUDIO
    TITLE "9:cjc042_0960"
    INDEX 01 00:41:02
  TRACK 28 AUDIO
    TITLE "0:"
    INDEX 01 00:43:68
  TRACK 29 AUDIO
    TITLE "10:cjc042_0961"
    INDEX 01 00:44:46
  TRACK 30 AUDIO
    TITLE "0:"
    INDEX 01 00:47:38
  TRACK 31 AUDIO
    TITLE "11:cjc042_0962"
    INDEX 01 00:48:12
  TRACK 32 AUDIO
    TITLE "0:"
    INDEX 01 00:51:22
  TRACK 33 AUDIO
    TITLE "8:cjc042_0963"
    INDEX 01 00:52:02
  TRACK 34 AUDIO
    TITLE "0:"
    INDEX 01 00:53:35
  TRACK 35 AUDIO
    TITLE "9:cjc042_0964"
    INDEX 01 00:54:05
  TRACK 36 AUDIO
    TITLE "0:"
    INDEX 01 00:57:35
  TRACK 37 AUDIO
    TITLE "10:cjc042_0965"
    INDEX 01 00:58:11
  TRACK 38 AUDIO
    TITLE "0:"
    INDEX 01 01:01:52
  TRACK 39 AUDIO
    TITLE "11:cjc042_0966"
    INDEX 01 01:02:34
  TRACK 40 AUDIO
    TITLE "0:"
    INDEX 01 01:05:26
  TRACK 41 AUDIO
    TITLE "8:cjc042_0967"
    INDEX 01 01:06:04
  TRACK 42 AUDIO
    TITLE "0:"
    INDEX 01 01:07:25
  TRACK 43 AUDIO
    TITLE "9:cjc042_0968"
    INDEX 01 01:08:05
  TRACK 44 AUDIO
    TITLE "0:"
    INDEX 01 01:10:08
  TRACK 45 AUDIO
    TITLE "10:cjc042_0969"
    INDEX 01 01:10:59
  TRACK 46 AUDIO
    TITLE "0:"
    INDEX 01 01:13:14
  TRACK 47 AUDIO
    TITLE "11:cjc042_0970"
    INDEX 01 01:13:63
  TRACK 48 AUDIO
    TITLE "0:"
    INDEX 01 01:16:67
  TRACK 49 AUDIO
    TITLE "8:cjc042_0971"
    INDEX 01 01:17:39
  TRACK 50 AUDIO
    TITLE "0:"
    INDEX 01 01:18:72
  TRACK 51 AUDIO
    TITLE "9:cjc042_0972"
    INDEX 01 01:19:48
  TRACK 52 AUDIO
    TITLE "0:"
    INDEX 01 01:22:52
  TRACK 53 AUDIO
    TITLE "10:cjc042_0973"
    INDEX 01 01:23:24
  TRACK 54 AUDIO
    TITLE "0:"
    INDEX 01 01:27:06
  TRACK 55 AUDIO
    TITLE "11:cjc042_0974"
    INDEX 01 01:27:57
  TRACK 56 AUDIO
    TITLE "0:"
    INDEX 01 01:31:38
  TRACK 57 AUDIO
    TITLE "8:cjc042_0975"
    INDEX 01 01:32:13
  TRACK 58 AUDIO
    TITLE "0:"
    INDEX 01 01:33:68
  TRACK 59 AUDIO
    TITLE "9:cjc042_0976"
    INDEX 01 01:34:48
  TRACK 60 AUDIO
    TITLE "0:"
    INDEX 01 01:36:74
  TRACK 61 AUDIO
    TITLE "10:cjc042_0977"
    INDEX 01 01:37:46
  TRACK 62 AUDIO
    TITLE "0:"
    INDEX 01 01:40:56
  TRACK 63 AUDIO
    TITLE "11:cjc042_0978"
    INDEX 01 01:41:32
  TRACK 64 AUDIO
    TITLE "0:"
    INDEX 01 01:44:44
